<svg width="138" height="32" xmlns="http://www.w3.org/2000/svg" fill="none">
 <defs>
  <clipPath id="clip0">
   <rect id="svg_1" x="6" y="9" fill="white" height="13.6535" width="21"/>
  </clipPath>
  <linearGradient y2="0.49999" x2="1.00009" y1="0.49999" x1="-0.00012" id="paint0_linear">
   <stop stop-color="#0043A9"/>
   <stop stop-color="#1140AA" offset="0.15"/>
   <stop stop-color="#3C38AC" offset="0.45"/>
   <stop stop-color="#822CAF" offset="0.85"/>
   <stop stop-color="#9C27B0" offset="1"/>
  </linearGradient>
  <linearGradient y2="0.49999" x2="1.00006" y1="0.49999" x1="0" id="paint1_linear">
   <stop stop-color="white"/>
   <stop stop-opacity="0.93" stop-color="white" offset="0.1"/>
   <stop stop-opacity="0.74" stop-color="white" offset="0.31"/>
   <stop stop-opacity="0.44" stop-color="white" offset="0.61"/>
   <stop stop-opacity="0.03" stop-color="white" offset="0.98"/>
   <stop stop-opacity="0" stop-color="white" offset="1"/>
  </linearGradient>
  <linearGradient y2="0.49993" x2="1" y1="0.49993" x1="-0.00047" id="paint2_linear">
   <stop stop-opacity="0"/>
   <stop offset="1"/>
  </linearGradient>
  <linearGradient y2="81.62941" x2="163.25081" y1="81.62941" x1="135.6805" id="paint3_linear">
   <stop stop-opacity="0"/>
   <stop offset="1"/>
  </linearGradient>
  <linearGradient y2="0" x2="56.09024" y1="43.80994" x1="56.09024" id="paint4_linear">
   <stop stop-color="white"/>
   <stop stop-opacity="0.93" stop-color="white" offset="0.1"/>
   <stop stop-opacity="0.74" stop-color="white" offset="0.31"/>
   <stop stop-opacity="0.44" stop-color="white" offset="0.61"/>
   <stop stop-opacity="0.03" stop-color="white" offset="0.98"/>
   <stop stop-opacity="0" stop-color="white" offset="1"/>
  </linearGradient>
 </defs>
 <g>
  <title>Layer 1</title>
  <g stroke="null" id="svg_4" clip-path="url(#clip0)">
   <path stroke="null" id="svg_5" fill="url(#paint0_linear)" d="m8.27814,22.6535l-0.04117,0c-0.37319,0.0001 -0.74043,-0.0934 -1.06822,-0.2718c-0.32779,-0.1784 -0.60567,-0.436 -0.80829,-0.7494c-0.20262,-0.3134 -0.32352,-0.6726 -0.35166,-1.0447c-0.02814,-0.3721 0.03738,-0.7454 0.19056,-1.0857l4.13444,-9.1847c0.1694,-0.37614 0.4396,-0.69809 0.7808,-0.9301c0.3411,-0.23202 0.7398,-0.36506 1.1519,-0.38438c0.4122,-0.01931 0.8216,0.07586 1.1829,0.27495c0.3614,0.1991 0.6605,0.49435 0.8644,0.85303c0.1731,0.3044 0.2721,0.6452 0.2891,0.9949c0.0169,0.3498 -0.0486,0.6986 -0.1913,1.0183l-4.092,9.1847c-0.1761,0.3943 -0.46252,0.7293 -0.82478,0.9644c-0.36225,0.2351 -0.78482,0.3603 -1.21668,0.3605zm9.98606,-1.3249l4.0933,-9.1847c0.1427,-0.3197 0.2083,-0.6685 0.1913,-1.0183c-0.017,-0.3497 -0.116,-0.6905 -0.2891,-0.9949l0,0c-0.2038,-0.35868 -0.503,-0.65393 -0.8644,-0.85303c-0.3613,-0.19909 -0.7707,-0.29426 -1.1829,-0.27495c-0.4121,0.01932 -0.8108,0.15236 -1.1519,0.38438c-0.3412,0.23201 -0.6114,0.55396 -0.7808,0.9301l-4.1344,9.1847c-0.1532,0.3403 -0.2187,0.7136 -0.1906,1.0857c0.0282,0.3721 0.1491,0.7313 0.3517,1.0447c0.2026,0.3134 0.4805,0.571 0.8083,0.7494c0.3277,0.1784 0.695,0.2719 1.0682,0.2718l0.0411,0c0.4318,-0.0001 0.8542,-0.1253 1.2163,-0.3605c0.362,-0.2351 0.6482,-0.5701 0.8239,-0.9644zm7.9472,0l0.5943,-1.3366c0.1414,-0.3179 0.2064,-0.6645 0.1899,-1.0121c-0.0166,-0.3475 -0.1142,-0.6864 -0.2851,-0.9895l-0.0193,-0.0347c-0.2021,-0.3612 -0.5006,-0.6591 -0.8622,-0.8606c-0.3616,-0.2015 -0.772,-0.2986 -1.1855,-0.2804c-0.4136,0.0181 -0.8139,0.1508 -1.1565,0.3831c-0.3425,0.2324 -0.6138,0.5553 -0.7835,0.9329l-0.6175,1.3712c-0.1531,0.3403 -0.2187,0.7136 -0.1905,1.0857c0.0281,0.3721 0.149,0.7313 0.3516,1.0447c0.2027,0.3134 0.4805,0.571 0.8083,0.7494c0.3278,0.1784 0.6951,0.2719 1.0682,0.2718l0.0412,0c0.4328,0.0008 0.8564,-0.124 1.2197,-0.3591c0.3632,-0.2352 0.6505,-0.5707 0.8269,-0.9658z"/>
   <path stroke="null" id="svg_6" fill="url(#paint1_linear)" d="m11.7013,18.2258l2.7104,-6.0819c0.1428,-0.3197 0.2083,-0.6685 0.1913,-1.0183c-0.017,-0.3497 -0.116,-0.6905 -0.2891,-0.9949l0,0c-0.2038,-0.35868 -0.503,-0.65393 -0.8643,-0.85303c-0.3614,-0.19909 -0.7708,-0.29426 -1.1829,-0.27495c-0.4121,0.01932 -0.8108,0.15236 -1.152,0.38438c-0.3411,0.23201 -0.6114,0.55396 -0.7808,0.9301l-1.4047,3.1208c1.68,1.4176 2.4351,3.2918 2.7721,4.7878z" opacity="0.49"/>
   <path stroke="null" id="svg_7" fill="url(#paint2_linear)" d="m16.6562,13.9229l-2.511,5.579c-0.1532,0.3403 -0.2187,0.7136 -0.1906,1.0857c0.0281,0.3721 0.149,0.7313 0.3517,1.0447c0.2026,0.3134 0.4805,0.571 0.8082,0.7494c0.3278,0.1784 0.6951,0.2719 1.0683,0.2718l0.0411,0c0.4319,-0.0002 0.8545,-0.1254 1.2167,-0.3605c0.3623,-0.2351 0.6487,-0.5701 0.8248,-0.9644l0.9571,-2.1483c-1.8331,-1.6272 -2.4081,-3.7484 -2.5663,-5.2574z" opacity="0.55"/>
   <path stroke="null" id="svg_8" fill="url(#paint3_linear)" d="m26.695,17.9557c-0.1531,-0.2734 -0.362,-0.5116 -0.613,-0.6991c-0.2511,-0.1875 -0.5387,-0.3202 -0.8444,-0.3895c-0.3056,-0.0692 -0.6223,-0.0735 -0.9297,-0.0125c-0.3074,0.061 -0.5985,0.1859 -0.8545,0.3666c1.2979,1.46 1.8485,3.4861 2.08,4.9667c0.2941,-0.2255 0.5271,-0.5209 0.6779,-0.8593l0.5944,-1.3366c0.1413,-0.3179 0.2063,-0.6645 0.1898,-1.0121c-0.0166,-0.3475 -0.1142,-0.6864 -0.285,-0.9895l-0.0155,-0.0347z" opacity="0.55"/>
   <path stroke="null" id="svg_9" fill="url(#paint4_linear)" d="m14.3137,10.1307c-0.2398,-0.42635 -0.6136,-0.76169 -1.0634,-0.95403c-0.4498,-0.19234 -0.9505,-0.23093 -1.4244,-0.10978c-0.0515,2.42091 0.8323,4.43541 1.4754,5.56871l1.1102,-2.4917c0.1427,-0.3197 0.2083,-0.6685 0.1913,-1.0183c-0.017,-0.3497 -0.116,-0.6905 -0.2891,-0.9949l0,0z" opacity="0.49"/>
  </g>
  <text transform="matrix(0.289163 0 0 0.309152 33.8973 17.1366)" stroke="null" xml:space="preserve" text-anchor="start" font-family="'Roboto Mono'" font-size="24" stroke-width="0" id="svg_10" y="21.63021" x="9.02747" fill="#ffffff">San Jose</text>
  <text font-weight="bold" transform="matrix(0.370825 0 0 0.39646 23.796 4.60073)" stroke="null" xml:space="preserve" text-anchor="start" font-family="'Roboto Mono'" font-size="24" id="svg_11" y="23.24023" x="33.2151" fill="#ffffff">Abarroteria</text>
 </g>
</svg>